<svg xmlns="http://www.w3.org/2000/svg" viewBox="0 0 512 512" role="img" aria-label="Infinity AOL">
  <rect width="512" height="512" rx="96" fill="#13201a"/>
  <path d="M138 276c0-58 38-98 90-98 35 0 61 17 88 51 22-29 45-45 76-45 48 0 82 37 82 89s-36 91-85 91c-34 0-60-17-86-50-23 30-48 48-81 48-49 0-84-36-84-86Zm55 0c0 22 14 38 34 38 17 0 31-10 48-32-18-23-32-37-50-37-19 0-32 13-32 31Zm151 6c17 22 31 32 48 32 18 0 30-14 30-36s-13-37-32-37c-16 0-30 10-46 41Z" fill="#e8f6ed"/>
  <path d="M98 406h316" stroke="#22b58c" stroke-width="28" stroke-linecap="round"/>
</svg>
